<?xml version="1.0" encoding="UTF-8" standalone="no"?>
<svg xmlns:dc="http://purl.org/dc/elements/1.1/" xmlns:cc="http://creativecommons.org/ns#" xmlns:rdf="http://www.w3.org/1999/02/22-rdf-syntax-ns#" xmlns:svg="http://www.w3.org/2000/svg" xmlns="http://www.w3.org/2000/svg" xmlns:sodipodi="http://sodipodi.sourceforge.net/DTD/sodipodi-0.dtd" xmlns:inkscape="http://www.inkscape.org/namespaces/inkscape" width="1074.3469" height="200" viewBox="0 0 1074.3469 200" fill="none" version="1.1" id="svg859" sodipodi:docname="sporttv-4-rebrand.svg" inkscape:version="1.0.1 (3bc2e813f5, 2020-09-07)">
  <metadata id="metadata865">
    <rdf:RDF>
      <cc:Work rdf:about="">
        <dc:format>image/svg+xml</dc:format>
        <dc:type rdf:resource="http://purl.org/dc/dcmitype/StillImage"/>
      </cc:Work>
    </rdf:RDF>
  </metadata>
  <defs id="defs863"/>
  <sodipodi:namedview pagecolor="#ffffff" bordercolor="#666666" borderopacity="1" objecttolerance="10" gridtolerance="10" guidetolerance="10" inkscape:pageopacity="0" inkscape:pageshadow="2" inkscape:window-width="1360" inkscape:window-height="706" id="namedview861" showgrid="false" inkscape:zoom="0.25" inkscape:cx="172" inkscape:cy="32.5" inkscape:window-x="-8" inkscape:window-y="-8" inkscape:window-maximized="1" inkscape:current-layer="svg859"/>
  <path d="m 589.01875,130.77594 c 15.94688,0.0637 29.05937,-12.82625 29.25,-28.67594 C 618.42813,86.154688 605.28437,72.85125 589.275,72.7875 573.23437,72.75563 559.99375,85.9 560.05625,101.84531 c 0.0656,15.88157 13.05,28.86719 28.99375,28.93063 z" fill="#fdea00" id="path839" style="stroke-width:3.125"/>
  <path d="m 367.8875,102.0375 c -0.12812,35.04125 -28.58125,63.17625 -63.75,63.01719 -34.78719,-0.15907 -63.04937,-28.77157 -62.85844,-63.62188 C 241.47,66.645938 270.14594,38.32 304.9,38.510937 c 34.91562,0.222813 63.1125,28.644375 62.9875,63.494693 z m -63.4,28.77156 c 15.94375,0.0634 29.05625,-12.82625 29.25,-28.67593 0.15937,-15.945317 -12.9875,-29.249068 -28.99688,-29.312818 -16.03937,-0.03156 -29.27937,13.112813 -29.21593,29.058128 0.0637,15.88156 13.04906,28.86687 28.99406,28.93062 z" fill="#fdea00" id="path841" style="stroke-width:3.125"/>
  <path d="m 549.52188,130.80781 v 34.02281 c -6.90625,0.66844 -13.65313,0.0319 -20.27188,-1.59125 -27.43438,-6.71531 -47.42188,-30.39468 -48.09063,-58.52937 -0.69999,-28.994375 -0.22187,-57.98875 -0.22187,-86.982937 0,-0.572875 0.125,-1.113907 0.25312,-1.877751 h 33.86251 v 22.5335 h 34.375 V 72.72375 H 515.15 c 0,2.578125 0,4.774062 0,6.970312 0,7.160938 -0.0312,14.321875 0,21.483128 0.12813,16.93187 12.4125,29.3125 29.34375,29.63062 1.625,0 3.21563,0 5.05938,0 z" fill="#ffffff" id="path843" style="fill:#000000;fill-opacity:1;stroke-width:3.125"/>
  <path d="m 634.81875,15.373219 h 33.8625 V 38.065938 H 703.15 v 34.277187 h -33.99063 c -0.15937,1.145938 -0.34999,1.909688 -0.34999,2.705312 0,8.911563 -0.15938,17.855001 0.0312,26.766563 0.38125,15.94531 12.63437,28.10312 28.58124,28.58031 1.84688,0.0637 3.69063,0 5.79376,0 v 34.055 c -8.15001,0.73188 -16.10626,-0.19094 -23.90313,-2.57812 -25.74688,-7.925 -44.08125,-31.19032 -44.59063,-58.11594 -0.54062,-28.739688 -0.15937,-57.510937 -0.15937,-86.250688 0,-0.572875 0.12812,-1.145656 0.25625,-2.100468 z" fill="#ffffff" id="path845" style="fill:#000000;fill-opacity:1;stroke-width:3.125"/>
  <path d="M 806.84063,38.255313 778.95938,109.07 750.63437,38.255313 H 712.95312 L 762.75937,164.5125 h 32.40001 l 49.2375,-126.257187 z" fill="#ffffff" id="path847" style="fill:#000000;fill-opacity:1;stroke-width:3.125"/>
  <path d="m 167.53594,38.51 c -34.53219,-0.222813 -63.04907,27.784688 -63.59,62.25313 v 0.50937 c 0,0.0638 0,0.0956 0,0.15906 0,0.0956 0,0.15907 0,0.25469 v 86.69625 h 34.34125 v -30.39469 c 8.56156,4.42406 18.26843,6.97031 28.51687,7.03375 35.16844,0.15938 63.62188,-27.97562 63.74906,-63.01719 C 230.68063,67.154062 202.48187,38.700938 167.56781,38.51 Z m -0.41375,92.26594 c -15.94531,-0.0634 -28.93063,-13.01719 -28.99438,-28.93063 -0.0634,-15.977185 13.17656,-29.12156 29.21719,-29.05781 16.00906,0.03187 29.18531,13.335312 29.02625,29.3125 -0.15906,15.84969 -13.30375,28.73969 -29.24906,28.67594 z" fill="#ffffff" id="path849" style="fill:#000000;fill-opacity:1;stroke-width:3.125"/>
  <path d="m 441.0875,38.764687 c -34.75313,-0.222812 -63.43125,28.135 -63.62188,62.921563 l -0.125,62.92187 H 411.7125 V 102.1 C 411.65,86.123125 424.85625,72.978437 440.89687,73.042187 h 28.58126 v -34.2775 z" fill="#ffffff" id="path851" style="fill:#000000;fill-opacity:1;stroke-width:3.125"/>
  <path d="m 50.540625,87.365 c -1.464062,-0.4775 -2.8325,-0.922812 -4.169063,-1.368438 -4.678437,-1.750625 -7.797812,-3.150937 -10.153125,-4.519687 -2.036875,-1.1775 -3.24625,-3.1825 -3.182499,-5.25125 0.06375,-1.909688 1.018437,-3.437188 2.928124,-4.583125 9.1025,-5.601563 36.505626,-1.273125 53.405626,6.238125 V 44.8125 C 79.6625,41.757187 65.53125,38.383437 50.63625,38.351562 35.6775,38.319687 23.742812,41.63 15.054031,48.218125 4.9330938,55.92 0,65.118125 0,76.352812 0,99.14094 23.010625,109.48469 43.029688,115.94563 c 1.464062,0.47718 2.832812,0.92281 4.169374,1.36843 3.150938,1.1775 7.129063,2.76906 10.1525,4.51938 2.036876,1.17781 3.246563,3.18281 3.182813,5.25156 -0.06375,1.90969 -1.018125,3.43719 -2.927813,4.58312 -9.325312,5.72875 -37.842187,1.05032 -54.6468745,-6.77937 l -0.8594063,-0.38188 v 33.35469 l 0.4137813,0.12719 c 9.7071875,3.15094 24.6024995,6.93844 40.4203125,7.00187 h 0.254375 c 14.799688,0 26.702813,-3.31 35.327812,-9.86624 10.120938,-7.70219 15.054063,-16.90001 15.054063,-28.13501 0,-22.78781 -23.010938,-33.131557 -43.03,-39.592495 z" fill="#ffffff" id="path853" style="fill:#000000;fill-opacity:1;stroke-width:3.125"/>
  <path d="m 974.34687,0 c -55.21875,0 -100,44.780312 -100,100 0,55.21969 44.78125,100 100,100 55.21873,0 100.00003,-44.78031 100.00003,-100 0,-55.219688 -44.7813,-100 -100.00003,-100 z" fill="#fdea00" id="path855" style="stroke-width:3.125"/>
  <path d="m 1019.4781,117.24937 v 22.94719 h -13.4625 V 161.5525 H 981.09375 V 140.19656 H 921.7375 V 117.24937 L 963.525,35.995625 h 26.54375 l -41.59687,81.253745 h 32.62187 V 87.49125 h 24.92185 v 29.75812 z" fill="#000000" id="path857" style="stroke-width:3.125"/>
</svg>