<?xml version="1.0" encoding="UTF-8" standalone="no"?>
<svg xmlns:dc="http://purl.org/dc/elements/1.1/" xmlns:cc="http://creativecommons.org/ns#" xmlns:rdf="http://www.w3.org/1999/02/22-rdf-syntax-ns#" xmlns:svg="http://www.w3.org/2000/svg" xmlns="http://www.w3.org/2000/svg" xmlns:sodipodi="http://sodipodi.sourceforge.net/DTD/sodipodi-0.dtd" xmlns:inkscape="http://www.inkscape.org/namespaces/inkscape" width="1074.3469" height="200" viewBox="0 0 1074.3469 200" fill="none" version="1.1" id="svg853" sodipodi:docname="sporttv-1.svg" inkscape:version="1.0.1 (3bc2e813f5, 2020-09-07)">
  <metadata id="metadata859">
    <rdf:RDF>
      <cc:Work rdf:about="">
        <dc:format>image/svg+xml</dc:format>
        <dc:type rdf:resource="http://purl.org/dc/dcmitype/StillImage"/>
      </cc:Work>
    </rdf:RDF>
  </metadata>
  <defs id="defs857"/>
  <sodipodi:namedview pagecolor="#ffffff" bordercolor="#666666" borderopacity="1" objecttolerance="10" gridtolerance="10" guidetolerance="10" inkscape:pageopacity="0" inkscape:pageshadow="2" inkscape:window-width="1360" inkscape:window-height="706" id="namedview855" showgrid="false" inkscape:zoom="0.5" inkscape:cx="452.70695" inkscape:cy="32" inkscape:window-x="-8" inkscape:window-y="-8" inkscape:window-maximized="1" inkscape:current-layer="svg853"/>
  <path d="m 589.01875,130.77594 c 15.94688,0.0637 29.05937,-12.82594 29.25,-28.67594 0.15938,-15.945312 -12.98438,-29.24875 -28.99375,-29.3125 -16.04063,-0.03187 -29.28125,13.112813 -29.21875,29.05781 0.0656,15.88188 13.05,28.86719 28.99375,28.93063 z" fill="#fdea00" id="path833" style="stroke-width:3.125"/>
  <path d="m 367.8875,102.00531 c -0.12812,35.04156 -28.58125,63.17656 -63.75,63.01719 -34.78719,-0.15906 -63.04937,-28.77125 -62.85844,-63.62187 C 241.47,66.614062 270.14594,38.288125 304.9,38.479063 c 34.91563,0.222812 63.1125,28.644062 62.9875,63.494687 z m -63.4,28.77156 c 15.94375,0.0637 29.05625,-12.82624 29.25,-28.67593 0.15938,-15.945315 -12.9875,-29.248753 -28.99687,-29.312503 -16.03938,-0.03187 -29.27938,13.1125 -29.21594,29.057813 0.0637,15.88156 13.04906,28.86719 28.99406,28.93063 z" fill="#fdea00" id="path835" style="stroke-width:3.125"/>
  <path d="m 549.52188,130.77594 v 34.02281 c -6.90625,0.66844 -13.65313,0.0319 -20.27188,-1.59125 -27.43437,-6.71562 -47.42188,-30.39469 -48.09063,-58.52969 -0.69999,-28.994372 -0.22187,-57.988435 -0.22187,-86.982779 0,-0.572875 0.125,-1.113937 0.25312,-1.877781 h 33.86251 v 22.533375 h 34.375 v 34.34125 H 515.15 c 0,2.577813 0,4.774063 0,6.97 0,7.16125 -0.0312,14.322188 0,21.483125 0.12813,16.93188 12.4125,29.3125 29.34375,29.63094 1.625,0 3.21563,0 5.05938,0 z" fill="white" id="path837" style="fill:#000000;fill-opacity:1;stroke-width:3.125"/>
  <path d="m 634.81875,15.339656 h 33.8625 V 38.032188 H 703.15 V 72.309687 H 669.15937 C 669,73.455625 668.80938,74.219375 668.80938,75.015 c 0,8.911563 -0.15938,17.855 0.0312,26.76656 0.38125,15.945 12.63437,28.10313 28.58124,28.58031 1.84688,0.0637 3.69063,0 5.79376,0 v 34.05469 c -8.15,0.73219 -16.10625,-0.19094 -23.90313,-2.57781 -25.74687,-7.925 -44.08125,-31.19031 -44.59062,-58.11594 -0.54063,-28.739685 -0.15938,-57.511248 -0.15938,-86.250748 0,-0.572875 0.12813,-1.145781 0.25625,-2.100562 z" fill="white" id="path839" style="fill:#000000;fill-opacity:1;stroke-width:3.125"/>
  <path d="M 806.84375,38.255313 778.9625,109.03813 750.6375,38.255313 H 712.95312 L 762.7625,164.48062 h 32.4 L 844.39688,38.255313 Z" fill="white" id="path841" style="fill:#000000;fill-opacity:1;stroke-width:3.125"/>
  <path d="m 167.53594,38.51 c -34.53219,-0.222813 -63.04907,27.784688 -63.59,62.25313 v 0.50937 c 0,0.0638 0,0.0956 0,0.15906 0,0.0956 0,0.15906 0,0.25469 v 86.69625 h 34.34125 v -30.39469 c 8.56156,4.42406 18.26844,6.97031 28.51687,7.03375 35.16875,0.15938 63.62188,-27.97562 63.74906,-63.01719 C 230.68063,67.154062 202.48187,38.700938 167.56781,38.51 Z m -0.41375,92.26594 c -15.94531,-0.0637 -28.93063,-13.01719 -28.99438,-28.93063 -0.0634,-15.976873 13.17656,-29.12156 29.2175,-29.05781 16.00875,0.03187 29.185,13.335312 29.02594,29.3125 -0.15906,15.84969 -13.30375,28.73969 -29.24906,28.67594 z" fill="white" id="path843" style="fill:#000000;fill-opacity:1;stroke-width:3.125"/>
  <path d="M 441.0875,38.732813 C 406.33437,38.51 377.65625,66.8675 377.46562,101.65437 l -0.125,62.92188 H 411.7125 V 102.06812 C 411.65,86.090937 424.85625,72.946562 440.89687,73.010312 h 28.58126 V 38.732813 Z" fill="white" id="path845" style="fill:#000000;fill-opacity:1;stroke-width:3.125"/>
  <path d="M 50.540625,87.333125 C 49.076562,86.855625 47.708437,86.41 46.371562,85.964375 41.693125,84.214063 38.57375,82.813438 36.21875,81.445 c -2.037188,-1.1775 -3.246563,-3.182813 -3.182812,-5.251562 0.06375,-1.909375 1.018437,-3.437188 2.928124,-4.582813 9.1025,-5.601563 36.505626,-1.273125 53.405626,6.237813 V 44.780625 C 79.6625,41.725 65.53125,38.351562 50.63625,38.319687 35.6775,38.287812 23.742812,41.597812 15.054031,48.185937 4.9330937,55.888125 0,65.085937 0,76.320937 0,99.109062 23.010625,109.4525 43.029688,115.91344 c 1.464062,0.4775 2.832812,0.92312 4.169374,1.36875 3.150938,1.1775 7.129063,2.76875 10.1525,4.51937 2.037188,1.1775 3.246563,3.1825 3.182813,5.25125 -0.06375,1.90969 -1.018125,3.4375 -2.927813,4.58313 -9.325312,5.72875 -37.842187,1.05031 -54.6468745,-6.77906 L 2.1002813,124.475 v 33.35437 l 0.4137812,0.1275 c 9.7071875,3.15094 24.6024995,6.93813 40.4203125,7.00188 h 0.254375 c 14.799688,0 26.702813,-3.31 35.327813,-9.86625 10.120937,-7.70219 15.054062,-16.90031 15.054062,-28.135 0,-22.78813 -23.010937,-33.131875 -43.03,-39.592813 z" fill="white" id="path847" style="fill:#000000;fill-opacity:1;stroke-width:3.125"/>
  <path d="m 974.34687,0 c -55.21875,0 -100,44.780312 -100,100 0,55.21969 44.78125,100 100,100 55.21873,0 100.00003,-44.78031 100.00003,-100 0,-55.219688 -44.7813,-100 -100.00003,-100 z" fill="#fdea00" id="path849" style="stroke-width:3.125"/>
  <path d="m 970.36875,39.242187 h 21.51562 V 164.7675 h -24.7625 V 65.404063 l -23.67812,6.62 -6.1125,-21.165 33.00625,-11.648438 z" fill="#000000" id="path851" style="stroke-width:3.125"/>
</svg>