<?xml version="1.0" encoding="UTF-8" standalone="no"?>
<svg xmlns:dc="http://purl.org/dc/elements/1.1/" xmlns:cc="http://creativecommons.org/ns#" xmlns:rdf="http://www.w3.org/1999/02/22-rdf-syntax-ns#" xmlns:svg="http://www.w3.org/2000/svg" xmlns="http://www.w3.org/2000/svg" xmlns:sodipodi="http://sodipodi.sourceforge.net/DTD/sodipodi-0.dtd" xmlns:inkscape="http://www.inkscape.org/namespaces/inkscape" width="1074.3469" height="200" viewBox="0 0 1074.3469 200" fill="none" version="1.1" id="svg1448" sodipodi:docname="sporttv-5-rebrand.svg" inkscape:version="1.0.1 (3bc2e813f5, 2020-09-07)">
  <metadata id="metadata1454">
    <rdf:RDF>
      <cc:Work rdf:about="">
        <dc:format>image/svg+xml</dc:format>
        <dc:type rdf:resource="http://purl.org/dc/dcmitype/StillImage"/>
      </cc:Work>
    </rdf:RDF>
  </metadata>
  <defs id="defs1452"/>
  <sodipodi:namedview pagecolor="#ffffff" bordercolor="#666666" borderopacity="1" objecttolerance="10" gridtolerance="10" guidetolerance="10" inkscape:pageopacity="0" inkscape:pageshadow="2" inkscape:window-width="1360" inkscape:window-height="706" id="namedview1450" showgrid="false" inkscape:zoom="0.25" inkscape:cx="172" inkscape:cy="32" inkscape:window-x="-8" inkscape:window-y="-8" inkscape:window-maximized="1" inkscape:current-layer="svg1448"/>
  <path d="M 588.9875,130.77594 C 604.93125,130.83969 618.04375,117.94969 618.23437,102.1 618.39375,86.154688 605.25,72.85125 589.24062,72.7875 573.2,72.755625 559.9625,85.9 560.025,101.84531 c 0.0625,15.88157 13.05,28.86719 28.99375,28.93063 z" fill="#fdea00" id="path1428" style="stroke-width:3.125"/>
  <path d="m 367.8875,102.0375 c -0.12812,35.04125 -28.58125,63.17625 -63.75,63.01719 -34.78719,-0.15907 -63.04937,-28.77157 -62.85844,-63.62188 C 241.47,66.645938 270.14594,38.32 304.9,38.510937 c 34.91562,0.222813 63.1125,28.644375 62.9875,63.494693 z m -63.4,28.77156 c 15.94375,0.0634 29.05625,-12.82625 29.25,-28.67593 0.15937,-15.945317 -12.9875,-29.249068 -28.99688,-29.312818 -16.03968,-0.03156 -29.27937,13.112813 -29.21593,29.058128 0.0637,15.88156 13.04937,28.86687 28.99406,28.93062 z" fill="#fdea00" id="path1430" style="stroke-width:3.125"/>
  <path d="m 549.52188,130.80781 v 34.02281 c -6.90625,0.66844 -13.65313,0.0319 -20.27188,-1.59125 -27.4375,-6.71531 -47.42188,-30.39468 -48.09063,-58.52937 -0.69999,-28.994375 -0.225,-57.98875 -0.225,-86.982937 0,-0.572875 0.12813,-1.113907 0.25625,-1.877751 h 33.86251 v 22.5335 h 34.375 V 72.72375 H 515.15 c 0,2.578125 0,4.774062 0,6.970312 0,7.160938 -0.0312,14.321875 0,21.483128 0.12813,16.93187 12.4125,29.3125 29.34375,29.63062 1.62188,0 3.21563,0 5.05938,0 z" fill="#ffffff" id="path1432" style="fill:#000000;fill-opacity:1;stroke-width:3.125"/>
  <path d="M 634.7875,15.373219 H 668.65 v 22.692719 h 34.46875 v 34.277187 h -33.99062 c -0.15938,1.145938 -0.35001,1.909688 -0.35001,2.705312 0,8.911563 -0.15937,17.855001 0.0313,26.766563 0.38124,15.94531 12.63437,28.10312 28.58124,28.58031 1.84375,0.0637 3.69063,0 5.79063,0 v 34.055 c -8.14688,0.73188 -16.10313,-0.19094 -23.9,-2.57812 -25.75,-7.925 -44.08125,-31.19032 -44.59063,-58.11594 -0.54062,-28.739688 -0.15937,-57.510937 -0.15937,-86.250688 0,-0.572875 0.12813,-1.145656 0.25625,-2.100468 z" fill="#ffffff" id="path1434" style="fill:#000000;fill-opacity:1;stroke-width:3.125"/>
  <path d="M 806.84375,38.255313 778.9625,109.07 750.6375,38.255313 H 712.92187 L 762.7625,164.5125 h 32.4 L 844.39688,38.255313 Z" fill="#ffffff" id="path1436" style="fill:#000000;fill-opacity:1;stroke-width:3.125"/>
  <path d="m 167.5375,38.51 c -34.53219,-0.222813 -63.04906,27.784688 -63.59,62.25313 v 0.50937 c 0,0.0638 0,0.0956 0,0.15906 0,0.0956 0,0.15907 0,0.25469 v 86.69625 h 34.34125 v -30.39469 c 8.56156,4.42406 18.26844,6.97031 28.51687,7.03375 35.16844,0.15938 63.62188,-27.97562 63.74907,-63.01719 C 230.68219,67.154062 202.48344,38.700938 167.56937,38.51 Z m -0.41438,92.26594 c -15.945,-0.0634 -28.93,-13.01719 -28.99375,-28.93063 -0.0634,-15.977185 13.17625,-29.12156 29.21688,-29.05781 16.00906,0.03187 29.18562,13.335312 29.02656,29.3125 -0.15906,15.84969 -13.30437,28.73969 -29.24969,28.67594 z" fill="#ffffff" id="path1438" style="fill:#000000;fill-opacity:1;stroke-width:3.125"/>
  <path d="M 441.05625,38.764687 C 406.3,38.541875 377.625,66.899687 377.43437,101.68625 l -0.12812,62.92187 h 34.375 V 102.1 C 411.61563,86.123125 424.825,72.978437 440.86563,73.042187 h 28.58125 v -34.2775 z" fill="#ffffff" id="path1440" style="fill:#000000;fill-opacity:1;stroke-width:3.125"/>
  <path d="M 50.541563,87.365 C 49.0775,86.8875 47.70875,86.442188 46.371875,85.996562 c -4.678438,-1.750625 -7.797187,-3.150937 -10.1525,-4.519687 -2.036875,-1.1775 -3.24625,-3.1825 -3.182812,-5.25125 C 33.100312,74.315937 34.055,72.788437 35.964375,71.6425 45.066875,66.040937 72.47,70.369375 89.37,77.880625 V 44.8125 C 79.662812,41.757187 65.531875,38.383437 50.636875,38.351562 35.678437,38.319687 23.742812,41.63 15.054031,48.218125 4.9330938,55.92 0,65.118125 0,76.352812 0,99.14094 23.010937,109.48469 43.03,115.94563 c 1.464062,0.47718 2.832813,0.92281 4.169375,1.36843 3.150938,1.1775 7.129063,2.76906 10.152812,4.51938 2.036875,1.17781 3.246251,3.18281 3.1825,5.25156 -0.06375,1.90969 -1.018124,3.43719 -2.927812,4.58312 -9.325313,5.72875 -37.841875,1.05032 -54.6464062,-6.77937 l -0.8594063,-0.38188 v 33.35469 l 0.413375,0.12719 c 9.7071875,3.15094 24.6021245,6.93844 40.4199375,7.00187 h 0.255 c 14.799375,0 26.702813,-3.31 35.328125,-9.86624 10.120937,-7.70219 15.054062,-16.90001 15.054062,-28.13501 0,-22.78781 -23.010937,-33.131557 -43.029999,-39.592495 z" fill="#ffffff" id="path1442" style="fill:#000000;fill-opacity:1;stroke-width:3.125"/>
  <path d="m 974.34687,0 c -55.21875,0 -100,44.780312 -100,100 0,55.21969 44.78125,100 100,100 55.21873,0 100.00003,-44.78031 100.00003,-100 0,-55.219688 -44.7813,-100 -100.00003,-100 z" fill="#fdea00" id="path1444" style="stroke-width:3.125"/>
  <path d="m 961.04375,60.025625 -2.83125,23.329062 0.50937,-0.318124 c 0.44375,-0.318438 1.17813,-0.763751 2.1625,-1.241251 1.01876,-0.509374 2.16563,-0.986562 3.50313,-1.495937 1.33438,-0.509063 3.15,-0.954687 5.40937,-1.336563 2.29063,-0.381874 4.74063,-0.573124 7.41563,-0.573124 7.44688,0 14.00313,1.336874 19.6688,4.010312 5.6656,2.673438 10.0249,6.174375 13.0812,10.502813 3.0562,4.328437 5.3156,8.784067 6.7469,13.335317 1.4312,4.55124 2.1656,9.16625 2.1656,13.84468 0,11.99875 -4.2656,22.24719 -12.7625,30.77688 -8.5,8.4975 -18.80937,12.7625 -30.9375,12.7625 -12.125,0 -22.53125,-4.10563 -30.93438,-12.34875 -8.40312,-8.21156 -12.60312,-18.61875 -12.60312,-31.19063 h 21.00313 c 0,5.7925 2.22812,10.98031 6.68437,15.59531 4.45625,4.615 9.74062,6.90657 15.85,6.90657 6.1125,0 11.7125,-2.16438 16.10625,-6.49282 4.39062,-4.32843 6.58745,-9.73906 6.58745,-16.16812 0,-6.11062 -2.13433,-11.29844 -6.4312,-15.595 -4.29375,-4.29656 -9.54688,-6.42906 -15.75313,-6.42906 -2.89687,0 -5.53749,0.31812 -7.925,0.92281 -2.3875,0.605 -4.26562,1.36875 -5.66562,2.25969 -1.4,0.89125 -2.57813,1.81437 -3.59375,2.73719 -1.01875,0.95499 -1.65625,1.68687 -2.00625,2.25968 l -0.50937,0.98657 -22.025,-1.33657 9.32499,-66.677185 h 64.86253 V 60.0575 H 960.95 Z" fill="#000000" id="path1446" style="stroke-width:3.125"/>
</svg>