<?xml version="1.0" encoding="UTF-8" standalone="no"?>
<svg xmlns:dc="http://purl.org/dc/elements/1.1/" xmlns:cc="http://creativecommons.org/ns#" xmlns:rdf="http://www.w3.org/1999/02/22-rdf-syntax-ns#" xmlns:svg="http://www.w3.org/2000/svg" xmlns="http://www.w3.org/2000/svg" xmlns:sodipodi="http://sodipodi.sourceforge.net/DTD/sodipodi-0.dtd" xmlns:inkscape="http://www.inkscape.org/namespaces/inkscape" width="1074.3469" height="200" viewBox="0 0 1074.3469 200" fill="none" version="1.1" id="svg1470" sodipodi:docname="sporttv-3.svg" inkscape:version="1.0.1 (3bc2e813f5, 2020-09-07)">
  <metadata id="metadata1476">
    <rdf:RDF>
      <cc:Work rdf:about="">
        <dc:format>image/svg+xml</dc:format>
        <dc:type rdf:resource="http://purl.org/dc/dcmitype/StillImage"/>
      </cc:Work>
    </rdf:RDF>
  </metadata>
  <defs id="defs1474"/>
  <sodipodi:namedview pagecolor="#ffffff" bordercolor="#666666" borderopacity="1" objecttolerance="10" gridtolerance="10" guidetolerance="10" inkscape:pageopacity="0" inkscape:pageshadow="2" inkscape:window-width="1360" inkscape:window-height="706" id="namedview1472" showgrid="false" inkscape:zoom="0.5" inkscape:cx="172" inkscape:cy="31.5" inkscape:window-x="-8" inkscape:window-y="-8" inkscape:window-maximized="1" inkscape:current-layer="svg1470"/>
  <path d="M 589.00312,130.77594 C 604.95,130.83969 618.0625,117.95 618.25313,102.1 618.4125,86.154687 605.26562,72.85125 589.25625,72.7875 c -16.04062,-0.03187 -29.27812,13.112813 -29.21563,29.05781 0.0625,15.88188 13.05001,28.86719 28.99376,28.93063 z" fill="#fdea00" id="path1450" style="stroke-width:3.125"/>
  <path d="m 367.90937,102.00531 c -0.12812,35.04156 -28.58125,63.17656 -63.74687,63.01719 -34.78719,-0.15906 -63.04844,-28.77125 -62.8575,-63.62187 0.19094,-34.786567 28.86594,-63.112505 63.62,-62.921567 34.9125,0.222812 63.10937,28.644062 62.98437,63.494687 z m -63.4,28.77156 c 15.94688,0.0637 29.05938,-12.82624 29.25,-28.67593 0.15938,-15.945315 -12.98437,-29.248753 -28.99375,-29.312503 -16.04031,-0.03187 -29.27968,13.112501 -29.21593,29.057813 0.0638,15.88156 13.04812,28.86719 28.99406,28.93062 z" fill="#fdea00" id="path1452" style="stroke-width:3.125"/>
  <path d="m 549.54062,130.77594 v 34.02281 c -6.90625,0.66844 -13.65312,0.0319 -20.27187,-1.59125 -27.4375,-6.71563 -47.425,-30.39469 -48.09062,-58.52969 -0.70001,-28.994373 -0.22501,-57.988435 -0.22501,-86.98281 0,-0.572812 0.12813,-1.11375 0.25625,-1.877812 h 33.8625 v 22.533437 h 34.37188 v 34.34125 h -34.275 c 0,2.577813 0,4.774063 0,6.97 0,7.16125 -0.0312,14.322187 0,21.483125 0.12812,16.93188 12.4125,29.3125 29.34375,29.63094 1.62187,0 3.21562,0 5.05937,0 z" fill="#ffffff" id="path1454" style="stroke-width:3.125;fill:#000000;fill-opacity:1"/>
  <path d="m 634.8,15.339656 h 33.86563 v 22.692532 h 34.46562 v 34.277499 h -33.99063 c -0.15937,1.145938 -0.35,1.909688 -0.35,2.705313 0,8.911563 -0.15937,17.855 0.0312,26.76656 0.38438,15.945 12.63751,28.10313 28.58126,28.58031 1.84687,0.0637 3.69374,0 5.79374,0 v 34.05469 c -8.14687,0.73219 -16.10624,-0.19094 -23.90312,-2.57781 -25.74688,-7.925 -44.08125,-31.19031 -44.5875,-58.11594 -0.54375,-28.739685 -0.15938,-57.511248 -0.15938,-86.250622 0,-0.573126 0.125,-1.145938 0.25313,-2.100688 z" fill="#ffffff" id="path1456" style="stroke-width:3.125;fill:#000000;fill-opacity:1"/>
  <path d="M 806.85312,38.255313 778.97187,109.03813 750.64688,38.255313 h -37.7125 l 49.80625,126.225307 h 32.43124 L 844.375,38.255313 Z" fill="#ffffff" id="path1458" style="stroke-width:3.125;fill:#000000;fill-opacity:1"/>
  <path d="M 167.56312,38.51 C 133.03188,38.287187 104.51594,66.294688 103.975,100.76313 v 0.50937 c 0,0.0638 0,0.0956 0,0.15906 0,0.0956 0,0.15907 0,0.25469 v 86.69625 h 34.34031 v -30.39469 c 8.56094,4.42406 18.26781,6.97031 28.51563,7.03375 35.16781,0.15938 63.62031,-27.97562 63.7475,-63.01719 C 230.70594,67.154062 202.50781,38.700938 167.595,38.51 Z m -0.41343,92.26594 c -15.94469,-0.0637 -28.93,-13.01719 -28.99375,-28.93063 -0.0637,-15.976873 13.17656,-29.12156 29.21656,-29.05781 16.00844,0.03187 29.18406,13.335312 29.025,29.3125 -0.15906,15.84969 -13.30312,28.73969 -29.24781,28.67594 z" fill="#ffffff" id="path1460" style="stroke-width:3.125;fill:#000000;fill-opacity:1"/>
  <path d="M 441.07813,38.732813 C 406.32187,38.51 377.64687,66.8675 377.45625,101.65438 l -0.12813,62.92187 h 34.375 V 102.06812 C 411.6375,86.090938 424.84687,72.946562 440.8875,73.010312 h 28.57813 V 38.732813 Z" fill="#ffffff" id="path1462" style="stroke-width:3.125;fill:#000000;fill-opacity:1"/>
  <path d="M 50.540625,87.333125 C 49.076563,86.855625 47.70875,86.41 46.371875,85.964375 41.693437,84.214062 38.57375,82.813437 36.21875,81.445 34.181562,80.2675 32.972187,78.262187 33.035938,76.193438 33.099688,74.284063 34.055,72.75625 35.964375,71.610625 45.066875,66.009062 72.47,70.3375 89.37,77.848438 V 44.780625 C 79.662812,41.725 65.53125,38.351562 50.63625,38.319687 35.6775,38.287812 23.742812,41.597812 15.054031,48.185937 4.9330938,55.888125 0,65.085937 0,76.320937 0,99.10906 23.010937,109.4525 43.03,115.91344 c 1.464062,0.4775 2.832813,0.92312 4.169375,1.36875 3.150938,1.1775 7.129063,2.76875 10.152812,4.51937 2.036875,1.1775 3.246251,3.1825 3.1825,5.25125 -0.06344,1.90969 -1.018124,3.4375 -2.927812,4.58313 -9.325313,5.72875 -37.8425,1.05031 -54.6471875,-6.77907 L 2.1002812,124.475 v 33.35437 l 0.4141563,0.1275 c 9.7071875,3.15094 24.6021245,6.93813 40.4199375,7.00188 h 0.255 c 14.799375,0 26.702188,-3.31 35.327187,-9.86625 10.120938,-7.70219 15.054063,-16.90031 15.054063,-28.135 0,-22.78812 -23.010938,-33.131875 -43.03,-39.592813 z" fill="#ffffff" id="path1464" style="stroke-width:3.125;fill:#000000;fill-opacity:1"/>
  <path d="m 974.35,0 c -55.21875,0 -99.99688,44.780312 -99.99688,100 0,55.21969 44.77813,100 99.99688,100 55.2188,0 99.9969,-44.78031 99.9969,-100 0,-55.219688 -44.7781,-100 -99.9969,-100 z" fill="#fdea00" id="path1466" style="stroke-width:3.125"/>
  <path d="m 987.6875,90.197188 c 8.4969,2.514375 15.4031,6.906252 20.7187,13.176252 5.3157,6.27 7.9875,13.84468 7.9875,22.6925 0,12.92187 -4.3281,23.01093 -13.0156,30.29937 -8.65935,7.28813 -19.28748,10.94844 -31.8281,10.94844 -9.80312,0 -18.55625,-2.22813 -26.25625,-6.71563 -7.70312,-4.4875 -13.30312,-11.07562 -16.775,-19.82812 l 21.16563,-12.18969 c 3.11875,9.67531 10.40937,14.51313 21.86562,14.51313 6.33437,0 11.26562,-1.52782 14.8,-4.58313 3.53125,-3.05531 5.28437,-7.19281 5.28437,-12.47625 0,-5.28312 -1.75312,-9.26156 -5.28437,-12.38062 -3.53438,-3.11906 -8.46563,-4.67844 -14.8,-4.67844 h -5.37813 L 956.65625,94.620937 981.41562,62.34875 H 932.275 V 39.210625 h 78.9 v 20.432812 l -23.4875,30.49 z" fill="#000000" id="path1468" style="stroke-width:3.125"/>
</svg>