<?xml version="1.0" encoding="UTF-8" standalone="no"?>
<svg
   xmlns:dc="http://purl.org/dc/elements/1.1/"
   xmlns:cc="http://creativecommons.org/ns#"
   xmlns:rdf="http://www.w3.org/1999/02/22-rdf-syntax-ns#"
   xmlns:svg="http://www.w3.org/2000/svg"
   xmlns="http://www.w3.org/2000/svg"
   xmlns:sodipodi="http://sodipodi.sourceforge.net/DTD/sodipodi-0.dtd"
   xmlns:inkscape="http://www.inkscape.org/namespaces/inkscape"
   width="1074.3469"
   height="200"
   viewBox="0 0 1074.3469 200"
   fill="none"
   version="1.1"
   id="svg881"
   sodipodi:docname="sporttv-2.svg"
   inkscape:version="1.0.1 (3bc2e813f5, 2020-09-07)">
  <metadata
     id="metadata887">
    <rdf:RDF>
      <cc:Work
         rdf:about="">
        <dc:format>image/svg+xml</dc:format>
        <dc:type
           rdf:resource="http://purl.org/dc/dcmitype/StillImage" />
      </cc:Work>
    </rdf:RDF>
  </metadata>
  <defs
     id="defs885" />
  <sodipodi:namedview
     pagecolor="#ffffff"
     bordercolor="#666666"
     borderopacity="1"
     objecttolerance="10"
     gridtolerance="10"
     guidetolerance="10"
     inkscape:pageopacity="0"
     inkscape:pageshadow="2"
     inkscape:window-width="1360"
     inkscape:window-height="706"
     id="namedview883"
     showgrid="false"
     inkscape:zoom="0.25"
     inkscape:cx="172"
     inkscape:cy="32.5"
     inkscape:window-x="-8"
     inkscape:window-y="-8"
     inkscape:window-maximized="1"
     inkscape:current-layer="svg881" />
  <path
     d="m 588.9875,130.77594 c 15.94688,0.0637 29.05937,-12.82594 29.25,-28.67594 0.15938,-15.945312 -12.98437,-29.24875 -28.99375,-29.3125 -16.04063,-0.03187 -29.28125,13.112812 -29.21562,29.05781 0.0625,15.88188 13.04687,28.86719 28.99375,28.93063 z"
     fill="#fdea00"
     id="path861"
     style="stroke-width:3.125" />
  <path
     d="m 367.8875,102.00531 c -0.12812,35.04156 -28.58125,63.17656 -63.75,63.01719 -34.78563,-0.15906 -63.04781,-28.77125 -62.85687,-63.62187 0.19093,-34.786567 28.86687,-63.112505 63.62249,-62.921567 34.9125,0.222812 63.1125,28.644062 62.98438,63.494687 z m -63.4,28.77156 c 15.94687,0.0637 29.05937,-12.82624 29.25,-28.67593 0.15937,-15.945315 -12.98438,-29.248753 -28.99375,-29.312503 -16.04125,-0.03187 -29.28125,13.1125 -29.2175,29.057813 0.0637,15.88156 13.04937,28.86719 28.99563,28.93062 z"
     fill="#fdea00"
     id="path863"
     style="stroke-width:3.125" />
  <path
     d="m 549.52188,130.77594 v 34.02281 c -6.90625,0.66844 -13.65313,0.0319 -20.27188,-1.59125 -27.4375,-6.71563 -47.42188,-30.39469 -48.09063,-58.52969 -0.69999,-28.994373 -0.225,-57.988435 -0.225,-86.982779 0,-0.572875 0.12813,-1.113937 0.25625,-1.877781 h 33.86251 v 22.533375 h 34.375 v 34.34125 H 515.15 c 0,2.577813 0,4.774063 0,6.97 0,7.16125 -0.0312,14.322187 0,21.483125 0.12813,16.93188 12.4125,29.3125 29.34375,29.63094 1.62188,0 3.21563,0 5.05938,0 z"
     fill="#ffffff"
     id="path865"
     style="stroke-width:3.125;fill:#000000;fill-opacity:1" />
  <path
     d="M 634.7875,15.339656 H 668.65 v 22.692532 h 34.46875 v 34.277499 h -33.99062 c -0.15938,1.145938 -0.35001,1.909688 -0.35001,2.705313 0,8.911563 -0.15937,17.855 0.0313,26.76656 0.38437,15.945 12.63749,28.10313 28.58124,28.58031 1.84688,0.0637 3.69376,0 5.79376,0 v 34.05469 c -8.14688,0.73219 -16.10626,-0.19094 -23.90313,-2.57781 -25.74688,-7.925 -44.07813,-31.19031 -44.5875,-58.11594 -0.54375,-28.739685 -0.15938,-57.511248 -0.15938,-86.250747 0,-0.572876 0.12501,-1.145782 0.25313,-2.100563 z"
     fill="#ffffff"
     id="path867"
     style="stroke-width:3.125;fill:#000000;fill-opacity:1" />
  <path
     d="M 806.84375,38.255313 778.9625,109.03813 750.6375,38.255313 H 712.92187 L 762.7625,164.48062 h 32.4 L 844.39688,38.255313 Z"
     fill="#ffffff"
     id="path869"
     style="stroke-width:3.125;fill:#000000;fill-opacity:1" />
  <path
     d="m 167.5375,38.51 c -34.53219,-0.222813 -63.04906,27.784688 -63.59,62.25313 v 0.50937 c 0,0.0638 0,0.0956 0,0.15906 0,0.0956 0,0.15907 0,0.25469 v 86.69625 h 34.34125 v -30.39469 c 8.56156,4.42406 18.26844,6.97031 28.51687,7.03375 35.16844,0.15938 63.62188,-27.97562 63.74907,-63.01719 C 230.68219,67.154062 202.48344,38.700938 167.56937,38.51 Z m -0.41406,92.26594 c -15.94532,-0.0637 -28.93032,-13.01719 -28.99407,-28.93063 -0.0634,-15.976873 13.17625,-29.12156 29.21688,-29.05781 16.00906,0.03187 29.18562,13.335312 29.02656,29.3125 -0.15906,15.84969 -13.30437,28.73969 -29.24937,28.67594 z"
     fill="#ffffff"
     id="path871"
     style="stroke-width:3.125;fill:#000000;fill-opacity:1" />
  <path
     d="M 441.05625,38.732813 C 406.3,38.51 377.625,66.8675 377.43437,101.65438 l -0.12812,62.92187 h 34.375 V 102.06812 C 411.61563,86.090937 424.825,72.946562 440.86563,73.010312 h 28.58125 V 38.732813 Z"
     fill="#ffffff"
     id="path873"
     style="stroke-width:3.125;fill:#000000;fill-opacity:1" />
  <path
     d="M 50.541563,87.333125 C 49.0775,86.855625 47.70875,86.41 46.371875,85.964375 41.693437,84.214062 38.574688,82.813437 36.219375,81.445 34.1825,80.2675 32.973125,78.262187 33.036563,76.193438 33.100312,74.284063 34.055,72.75625 35.964375,71.610625 45.066875,66.009062 72.47,70.3375 89.37,77.848438 V 44.780625 C 79.662812,41.725 65.531875,38.351562 50.636875,38.319687 35.678437,38.287812 23.742812,41.597812 15.054031,48.185937 4.9330938,55.888125 0,65.085937 0,76.320937 0,99.10906 23.010937,109.4525 43.03,115.91344 c 1.464062,0.4775 2.832813,0.92312 4.169375,1.36875 3.150938,1.1775 7.129063,2.76875 10.152812,4.51937 2.036875,1.1775 3.246251,3.1825 3.1825,5.25125 -0.06344,1.90969 -1.018124,3.4375 -2.927812,4.58313 -9.325313,5.72875 -37.841875,1.05031 -54.6464062,-6.77907 L 2.1010625,124.475 v 33.35437 l 0.413375,0.1275 c 9.7071875,3.15094 24.6021245,6.93813 40.4199375,7.00188 h 0.255 c 14.799375,0 26.702813,-3.31 35.328125,-9.86625 10.120937,-7.70219 15.054062,-16.90031 15.054062,-28.135 0,-22.78812 -23.010937,-33.131875 -43.029999,-39.592812 z"
     fill="#ffffff"
     id="path875"
     style="stroke-width:3.125;fill:#000000;fill-opacity:1" />
  <path
     d="m 974.34687,0 c -55.21875,0 -100,44.780312 -100,100 0,55.21969 44.78125,100 100,100 55.21873,0 100.00003,-44.78031 100.00003,-100 0,-55.219688 -44.7813,-100 -100.00003,-100 z"
     fill="#fdea00"
     id="path877"
     style="stroke-width:3.125" />
  <path
     d="m 931.92187,159.57937 v -18.45968 l 42.87188,-44.11188 c 9.54687,-10.057185 14.35312,-18.395935 14.35312,-25.11156 0,-4.90125 -1.52812,-8.847812 -4.58125,-11.839375 -3.05624,-2.991875 -6.97187,-4.487813 -11.74375,-4.487813 -9.45312,0 -16.45625,4.901563 -20.97499,14.704063 L 931.03125,58.083438 c 3.94687,-8.593125 9.6125,-15.181251 17.02813,-19.732501 C 955.475,33.799687 963.59062,31.54 972.4375,31.54 c 11.3625,0 21.10312,3.564375 29.2187,10.661875 8.1157,7.129375 12.1907,16.709063 12.1907,28.771563 0,13.017187 -6.875,26.384372 -20.59377,40.101872 l -24.63438,24.63406 h 47.20005 v 23.83813 h -83.92818 z"
     fill="#000000"
     id="path879"
     style="stroke-width:3.125" />
</svg>
