<?xml version="1.0" encoding="UTF-8" standalone="no"?>
<svg xmlns:dc="http://purl.org/dc/elements/1.1/" xmlns:cc="http://creativecommons.org/ns#" xmlns:rdf="http://www.w3.org/1999/02/22-rdf-syntax-ns#" xmlns:svg="http://www.w3.org/2000/svg" xmlns="http://www.w3.org/2000/svg" xmlns:sodipodi="http://sodipodi.sourceforge.net/DTD/sodipodi-0.dtd" xmlns:inkscape="http://www.inkscape.org/namespaces/inkscape" width="1074.3469" height="200" viewBox="0 0 1074.3469 200" fill="none" version="1.1" id="svg2037" sodipodi:docname="sporttv-6-rebrand.svg" inkscape:version="1.0.1 (3bc2e813f5, 2020-09-07)">
  <metadata id="metadata2043">
    <rdf:RDF>
      <cc:Work rdf:about="">
        <dc:format>image/svg+xml</dc:format>
        <dc:type rdf:resource="http://purl.org/dc/dcmitype/StillImage"/>
      </cc:Work>
    </rdf:RDF>
  </metadata>
  <defs id="defs2041"/>
  <sodipodi:namedview pagecolor="#ffffff" bordercolor="#666666" borderopacity="1" objecttolerance="10" gridtolerance="10" guidetolerance="10" inkscape:pageopacity="0" inkscape:pageshadow="2" inkscape:window-width="1360" inkscape:window-height="706" id="namedview2039" showgrid="false" inkscape:zoom="0.5" inkscape:cx="172" inkscape:cy="31.5" inkscape:window-x="-8" inkscape:window-y="-8" inkscape:window-maximized="1" inkscape:current-layer="svg2037"/>
  <path d="M 589.00312,130.77594 C 604.95,130.83969 618.0625,117.94969 618.25313,102.1 618.4125,86.154687 605.26562,72.85125 589.25625,72.7875 573.21563,72.755625 559.97813,85.9 560.04062,101.84531 c 0.0625,15.88157 13.05001,28.86719 28.99376,28.93063 z" fill="#fdea00" id="path2017" style="stroke-width:3.125"/>
  <path d="m 367.90937,102.0375 c -0.12812,35.04125 -28.58125,63.17625 -63.74687,63.01719 -34.78719,-0.15907 -63.04844,-28.77157 -62.8575,-63.62188 0.19094,-34.786872 28.86594,-63.11281 63.62,-62.921873 34.9125,0.222813 63.10937,28.644375 62.98437,63.494693 z m -63.4,28.77156 c 15.94688,0.0634 29.05938,-12.82625 29.25,-28.67593 0.15938,-15.945317 -12.98437,-29.249068 -28.99375,-29.312818 -16.04031,-0.03156 -29.27968,13.112813 -29.21593,29.058128 0.0638,15.88156 13.04812,28.86687 28.99406,28.93062 z" fill="#fdea00" id="path2019" style="stroke-width:3.125"/>
  <path d="m 549.54062,130.80781 v 34.02281 c -6.90625,0.66844 -13.65312,0.0319 -20.27187,-1.59125 -27.4375,-6.71531 -47.425,-30.39468 -48.09062,-58.52937 -0.70001,-28.994375 -0.22501,-57.98875 -0.22501,-86.982813 0,-0.573124 0.12813,-1.114062 0.25625,-1.877812 h 33.8625 v 22.533437 h 34.37188 V 72.72375 h -34.275 c 0,2.578125 0,4.774062 0,6.970312 0,7.160938 -0.0312,14.321875 0,21.483128 0.12812,16.93187 12.4125,29.3125 29.34375,29.63062 1.62187,0 3.21562,0 5.05937,0 z" fill="#ffffff" id="path2021" style="fill:#000000;fill-opacity:1;stroke-width:3.125"/>
  <path d="m 634.8,15.371719 h 33.86563 v 22.692656 h 34.46562 v 34.2775 h -33.99063 c -0.15937,1.145625 -0.35,1.909375 -0.35,2.705313 0,8.91125 -0.15937,17.854687 0.0312,26.766252 0.38438,15.94531 12.63751,28.10312 28.58126,28.58031 1.84687,0.0637 3.69374,0 5.79374,0 v 34.055 c -8.14687,0.73187 -16.10624,-0.19094 -23.90312,-2.57813 -25.74688,-7.92468 -44.08125,-31.19031 -44.5875,-58.11593 -0.54375,-28.739378 -0.15938,-57.51094 -0.15938,-86.250627 0,-0.572813 0.125,-1.145626 0.25313,-2.100501 z" fill="#ffffff" id="path2023" style="fill:#000000;fill-opacity:1;stroke-width:3.125"/>
  <path d="M 806.85312,38.255313 778.97187,109.07 750.64688,38.255313 h -37.7125 L 762.74063,164.5125 h 32.43124 L 844.375,38.255313 Z" fill="#ffffff" id="path2025" style="fill:#000000;fill-opacity:1;stroke-width:3.125"/>
  <path d="M 167.56312,38.51 C 133.03188,38.287187 104.51594,66.294688 103.975,100.76313 v 0.50937 c 0,0.0638 0,0.0956 0,0.15906 0,0.0956 0,0.15907 0,0.25469 v 86.69625 h 34.34031 v -30.39469 c 8.56094,4.42406 18.26781,6.97031 28.51563,7.03375 35.16781,0.15938 63.62031,-27.97562 63.7475,-63.01719 C 230.70562,67.154062 202.50781,38.700938 167.595,38.51 Z m -0.41343,92.26594 c -15.94469,-0.0634 -28.93,-13.01719 -28.99375,-28.93063 -0.0637,-15.977185 13.17656,-29.12156 29.21656,-29.05781 16.00844,0.03187 29.18406,13.335312 29.025,29.3125 -0.15906,15.84969 -13.30312,28.73969 -29.24781,28.67594 z" fill="#ffffff" id="path2027" style="fill:#000000;fill-opacity:1;stroke-width:3.125"/>
  <path d="m 441.07813,38.764687 c -34.75626,-0.222812 -63.43126,28.135 -63.62188,62.921563 l -0.12813,62.92187 h 34.375 V 102.1 C 411.6375,86.123125 424.84687,72.978437 440.8875,73.042187 h 28.57813 v -34.2775 z" fill="#ffffff" id="path2029" style="fill:#000000;fill-opacity:1;stroke-width:3.125"/>
  <path d="m 50.540625,87.365 c -1.464062,-0.4775 -2.831875,-0.922813 -4.16875,-1.368437 -4.678438,-1.750626 -7.798125,-3.150938 -10.153438,-4.519688 -2.036875,-1.1775 -3.24625,-3.1825 -3.182499,-5.25125 C 33.099688,74.315937 34.055,72.788437 35.964375,71.6425 45.066875,66.040937 72.47,70.369375 89.37,77.880625 V 44.8125 C 79.662812,41.757187 65.53125,38.383437 50.63625,38.351562 35.6775,38.319687 23.742812,41.63 15.054031,48.218125 4.9330938,55.92 0,65.118125 0,76.352812 0,99.14094 23.010937,109.48469 43.03,115.94563 c 1.464062,0.47718 2.832813,0.92281 4.169375,1.36843 3.150938,1.1775 7.129063,2.76906 10.152812,4.51938 2.036875,1.17781 3.246251,3.18281 3.1825,5.25156 -0.06375,1.90969 -1.018124,3.43719 -2.927812,4.58312 -9.325313,5.72875 -37.8425,1.05032 -54.6471875,-6.77937 l -0.8594063,-0.38188 v 33.35469 l 0.4141563,0.12719 c 9.7071875,3.15094 24.6021245,6.93844 40.4199375,7.00187 h 0.255 c 14.799375,0 26.702188,-3.31 35.327187,-9.86624 10.120938,-7.70219 15.054063,-16.90001 15.054063,-28.13501 0,-22.78781 -23.010938,-33.131557 -43.03,-39.592495 z" fill="#ffffff" id="path2031" style="fill:#000000;fill-opacity:1;stroke-width:3.125"/>
  <path d="m 974.35,0 c -55.21875,0 -99.99688,44.780312 -99.99688,100 0,55.21969 44.77813,100 99.99688,100 55.2188,0 99.9969,-44.78031 99.9969,-100 0,-55.219688 -44.7781,-100 -99.9969,-100 z" fill="#fdea00" id="path2033" style="stroke-width:3.125"/>
  <path d="m 974.12812,77.24375 c 13.05001,0.35 23.61568,4.583125 31.76248,12.635312 8.1469,8.052188 12.1906,18.395938 12.1906,30.935628 0,12.53968 -4.2343,23.29718 -12.7312,31.47656 -8.4969,8.17969 -19.41562,12.28531 -32.8125,12.28531 -13.4,0 -24.28438,-4.07375 -32.71875,-12.18969 -8.43438,-8.11593 -12.63437,-18.65062 -12.63437,-31.57218 0,-9.54813 2.44999,-17.98219 7.34999,-25.27063 l 39.08438,-59.006872 h 28.32505 L 974.09688,77.24375 Z m -16.45625,58.46594 c 3.94688,3.72375 8.91251,5.56969 14.89688,5.56969 5.98438,0 10.98125,-1.84594 14.99063,-5.56969 4.00937,-3.69188 6.01562,-8.65688 6.01562,-14.895 0,-6.23813 -2.00625,-11.01219 -6.01562,-14.70406 -4.00938,-3.69188 -9.00625,-5.56969 -14.99063,-5.56969 -5.98437,0 -10.95,1.81406 -14.89688,5.47437 -3.94375,3.66 -5.91875,8.59313 -5.91875,14.79938 0,6.20625 1.975,11.17125 5.91875,14.895 z" fill="#000000" id="path2035" style="stroke-width:3.125"/>
</svg>